<svg width="270" height="562" viewBox="0 0 270 562" fill="none" xmlns="http://www.w3.org/2000/svg">
<path d="M225.379 -46.3392C191.342 -52.7815 164.481 -53.4821 130.978 -42.4228C109.116 -42.4228 91.4817 -29.6137 73.6045 -7.16369C62.5382 6.73322 52.0351 19.1472 42.9511 37.8881C33.8129 56.7412 24.6733 81.4828 15.1461 98.3302C-7.49224 138.363 0.721494 236.404 5.24484 287.212C15.5243 402.675 55.6663 473.442 102.766 531.219C127.347 561.373 151.582 562 179.264 562C221.114 562 258.201 548.708 291.84 493.723C316.367 453.631 336.938 383.994 340.397 319.112C342.933 271.549 344.692 210.233 340.397 162.97C330.792 57.2903 276.37 -36.6878 225.379 -46.3392Z" fill="#EFF4F3"/>
</svg>
