<svg width="672" height="127" fill="none" xmlns="http://www.w3.org/2000/svg"><path opacity=".4" d="M465.214 4.6685C394.957-1.7843 339.512-2.486 270.357 8.5912c-45.126 0-81.526 12.8301-118.427 35.3167-22.842 13.9196-44.522 26.3538-63.2726 45.1253-18.8627 18.8838-37.728 43.6658-57.3934 60.5408-46.7288 40.098-29.7745 138.299-20.4377 189.19C32.0446 454.415 114.903 525.298 212.123 583.169 262.862 613.372 312.886 614 370.025 614c86.385 0 162.939-13.314 232.374-68.389 50.627-40.157 93.088-109.908 100.228-174.895 5.235-47.641 8.867-109.057 0-156.397C682.802 108.467 570.468 14.3356 465.214 4.6685z" fill="#F1DED0"/></svg>