<svg width="666" height="614" fill="none" xmlns="http://www.w3.org/2000/svg"><path opacity=".4" d="M423.214 4.6685C352.957-1.7843 297.512-2.486 228.357 8.5912c-45.126 0-81.526 12.8301-118.427 35.3167-22.8421 13.9196-44.5221 26.3538-63.2726 45.1253C27.7947 107.917 8.9294 132.699-10.736 149.574c-46.7288 40.098-29.7745 138.299-20.4377 189.19C-9.9554 454.415 72.9032 525.298 170.123 583.169 220.862 613.372 270.886 614 328.025 614c86.385 0 162.939-13.314 232.374-68.389 50.627-40.157 93.088-109.908 100.228-174.895 5.235-47.641 8.867-109.057 0-156.397C640.802 108.467 528.468 14.3356 423.214 4.6685z" fill="#F1DED0"/></svg>